<svg fill="#ff3b30" viewBox="0 0 30 30" xmlns="http://www.w3.org/2000/svg"><path d="m9.5449219 4c-3.615 0-6.5449219 2.9299219-6.5449219 6.544922 0 6.292399 7.298975 12.304877 10.708984 14.982422a2 2 0 0 0 .009766.007812c.023365.018344.055131.044473.078125.0625l.001953-.001953a2 2 0 0 0 1.201172.404297 2 2 0 0 0 1.203125-.404297v.001953c.00673-.005276.016676-.012275.023437-.017578.005142-.004033.012418-.009623.017579-.013672a2 2 0 0 0 .019531-.017578c3.399437-2.667924 10.736328-8.696492 10.736328-15.003906 0-3.6150001-2.929922-6.544922-6.544922-6.544922-3.455 0-5.455078 3-5.455078 3s-2.000078-3-5.4550781-3z" fill="#ff3b30"/></svg>