<svg fill="#fff" viewBox="0 0 30 30" xmlns="http://www.w3.org/2000/svg"><path d="m9.4414062 3c-5.4509999.094-6.0080624 3.8738437-4.9140624 8.214844-.212.122-.5606563.509265-.4726563 1.197265.164 1.283.7202187 1.607766 1.0742187 1.634766.135 1.198 1.4210938 2.730125 1.8710938 2.953125v2c-1 3-7 0-7 8h12c0-3.548 1.989438-5.076078 3.648438-5.955078-1.558-.546-3.171438-.613922-3.648438-2.044922v-2c.45-.223 1.735094-1.754172 1.871094-2.951172.08-.283.142578-1.295437.142578-1.523437 0-1.249-.018328-3.8305629.763672-5.8515629-.273-1.358-.986625-2.5032969-2.515625-2.6542969-.409-.6769999-1.457313-1.0195312-2.8203128-1.0195312zm12.6816408 1c-1.124 0-1.992188 1-1.992188 1-6.442 0-2.865812 10.953344-4.757812 12.527344 0 0 1.005953 1.490234 4.626953 1.490234v1.275391c-1 2.707-6 1.707031-6 6.707031h16c0-5-5-4.000031-6-6.707031v-1.28711c3.639 0 4.482422-1.441406 4.482422-1.441406-2.037-1.672 1.516625-13.564453-6.359375-13.564453z"/></svg>