<svg fill="#fff" viewBox="0 0 30 30" xmlns="http://www.w3.org/2000/svg"><path d="m17.998047 4c-2.0475 0-4.09425.78175-5.65625 2.34375l-1.986328 1.984375c-1.1240003 1.124-2.459969 1.999703-3.917969 2.595703l12.636719 12.636719c.596-1.458 1.471703-2.792969 2.595703-3.917969l1.986328-1.986328c2.668718-2.668718 3.04906-6.750235 1.158203-9.8320312a2 2 0 0 0 1.185547-1.8242188 2 2 0 0 0 -2-2 2 2 0 0 0 -1.824219 1.1855469c-1.278371-.7847272-2.726482-1.1855469-4.177734-1.1855469zm-14.0078126 6.990234a1.0001 1.0001 0 0 0 -.6972656 1.716797l5.4238281 5.423828a2.5 2.5 0 0 0 -1.7167969 2.369141 2.5 2.5 0 0 0 2.5 2.5 2.5 2.5 0 0 0 2.371094-1.714844l5.421875 5.421875a1.0001 1.0001 0 1 0 1.414062-1.414062l-13.9999998-14a1.0001 1.0001 0 0 0 -.7167968-.302735z"/></svg>