<svg fill="#4cd964" viewBox="0 0 30 30" xmlns="http://www.w3.org/2000/svg"><path d="m13 3c-.512 0-1.024062.1949375-1.414062.5859375l-9.0000005 9.0000005c-.781.781-.781 2.047125 0 2.828124l1.5625 1.5625c.178-.675.5164375-1.298687 1.0234375-1.804687l9-9c.755-.756 1.760125-1.171875 2.828125-1.171875h5.445312c-.693-1.191-1.968312-2-3.445312-2zm4 4c-.512 0-1.024062.1949375-1.414062.5859375l-9.0000005 9.0000005c-.781.780999-.781 2.047125 0 2.828124l8.0000005 8c.781.781 2.047125.781001 2.828124 0l9-9c.391-.389999.585938-.902062.585938-1.414062v-6c0-2.209-1.791-4-4-4zm6 2c1.105 0 2 .895 2 2s-.895 2-2 2-2-.895-2-2 .895-2 2-2z"/></svg>