<svg fill="#ff2d55" viewBox="0 0 30 30" xmlns="http://www.w3.org/2000/svg"><path d="m20 3a1 1 0 0 0 -.865234.5019531h-.001954l-4.376953 6.3964844 5.347657 5.3476565 6.43164-4.400391.001953-.001953a1 1 0 0 0 .462891-.84375 1 1 0 0 0 -.296875-.7109375l-5.972656-5.9707031-.003907-.0039063a1 1 0 0 0 -.726562-.3144531zm-9.890625 8c-1.487 0-2.974875.566672-4.109375 1.701172l4.941406 4.943359-6.6484372 6.648438a1.0001 1.0001 0 1 0 1.4140624 1.414062l6.6484378-6.648437 4.943359 4.941406c2.269-2.269 2.269-5.947797 0-8.216797l-3.082031-3.082031c-1.1345-1.1345-2.620422-1.701172-4.107422-1.701172z"/></svg>