<svg fill="#5856d6" viewBox="0 0 30 30" xmlns="http://www.w3.org/2000/svg"><path d="m15 3c-6.6155724 0-12 5.3844276-12 12 0 6.615572 5.3844276 12 12 12 6.615572 0 12-5.384428 12-12 0-6.6155724-5.384428-12-12-12zm0 2c5.534692 0 10 4.4653079 10 10 0 5.534692-4.465308 10-10 10-5.5346921 0-10-4.465308-10-10 0-5.5346921 4.4653079-10 10-10zm-7 8c-.552 0-1 .448-1 1v1c0 1.657 1.343 3 3 3h1c1.657 0 3-1.343 3-3v-1c0-.552-.448-1-1-1zm9 0c-.552 0-1 .448-1 1v1c0 1.657 1.343 3 3 3h1c1.657 0 3-1.343 3-3v-1c0-.552-.448-1-1-1zm1.619141 6.992188a1.0001 1.0001 0 0 0 -.541016.15039c-.904268.542905-1.950197.857422-3.078125.857422s-2.173857-.314517-3.078125-.857422a1.0001 1.0001 0 1 0 -1.029297 1.714844c1.197732.719095 2.60535 1.142578 4.107422 1.142578s2.90969-.423483 4.107422-1.142578a1.0001 1.0001 0 0 0 -.488281-1.865234z" fill="#5856d6"/></svg>