<svg fill="#5ac8fa" viewBox="0 0 30 30" xmlns="http://www.w3.org/2000/svg"><path d="m15 3c-6.6155724 0-12 5.3844276-12 12 0 6.615572 5.3844276 12 12 12 6.615572 0 12-5.384428 12-12 0-6.6155724-5.384428-12-12-12zm0 2c5.534692 0 10 4.4653079 10 10 0 5.534692-4.465308 10-10 10-5.5346921 0-10-4.465308-10-10 0-5.5346921 4.4653079-10 10-10zm-4.5 8a1.5 1.5 0 0 0 -1.5 1.5 1.5 1.5 0 0 0 1.5 1.5 1.5 1.5 0 0 0 1.5-1.5 1.5 1.5 0 0 0 -1.5-1.5zm9 0a1.5 1.5 0 0 0 -1.5 1.5 1.5 1.5 0 0 0 1.5 1.5 1.5 1.5 0 0 0 1.5-1.5 1.5 1.5 0 0 0 -1.5-1.5zm-4.5 5c-1.516667 0-2.721548.606368-3.525391 1.191406a1.0002946 1.0002946 0 0 0 1.177735 1.617188c.570157-.414962 1.364323-.808594 2.347656-.808594s1.777499.393632 2.347656.808594a1.0002946 1.0002946 0 1 0 1.177735-1.617188c-.803843-.585038-2.008724-1.191406-3.525391-1.191406z" fill="#5ac8fa"/></svg>