<svg fill="#007aff" viewBox="0 0 30 30" xmlns="http://www.w3.org/2000/svg"><path d="m15 3c-6.6155724 0-12 5.3844276-12 12 0 6.615572 5.3844276 12 12 12 6.615572 0 12-5.384428 12-12 0-6.6155724-5.384428-12-12-12zm0 2c5.534692 0 10 4.4653079 10 10 0 5.534692-4.465308 10-10 10-5.5346921 0-10-4.465308-10-10 0-5.5346921 4.4653079-10 10-10zm-6 8a1.0001 1.0001 0 1 0 0 2h3a1.0001 1.0001 0 1 0 0-2zm9 0a1.0001 1.0001 0 1 0 0 2h3a1.0001 1.0001 0 1 0 0-2zm-8 5c0 2.761 2.239 5 5 5s5-2.239 5-5z" fill="#007aff"/></svg>